<svg width="31" height="37" viewBox="0 0 31 37" fill="none" xmlns="http://www.w3.org/2000/svg">
<path d="M29.068 22.104C28.538 21.68 27.796 21.362 27.054 21.362C26.948 21.362 26.842 21.362 26.63 21.362C26.418 21.256 26.206 21.044 26.206 20.726V14.26C26.206 9.59598 23.238 5.67398 19.104 4.18998C19.104 2.06998 17.514 0.47998 15.5 0.47998C13.486 0.47998 11.896 2.06998 11.79 4.08398C7.65602 5.56798 4.68802 9.59598 4.68802 14.154V20.62C4.68802 20.938 4.47602 21.15 4.26402 21.256C4.15802 21.256 4.05202 21.256 3.84002 21.256C3.09802 21.362 2.46202 21.574 1.82602 21.998C0.872023 22.74 0.236023 23.906 0.236023 25.178C0.236023 27.404 2.03802 29.1 4.15802 29.1H26.63C28.856 29.1 30.552 27.298 30.552 25.178C30.658 23.906 30.022 22.74 29.068 22.104ZM15.5 2.49398C16.242 2.49398 16.878 2.91798 17.09 3.65998C16.56 3.55398 16.03 3.55398 15.5 3.55398C14.97 3.55398 14.44 3.55398 13.91 3.65998C14.122 2.91798 14.758 2.49398 15.5 2.49398ZM26.736 27.192H4.26402C3.20402 27.192 2.25002 26.238 2.25002 25.178C2.25002 24.224 2.99202 23.376 3.84002 23.164C3.94602 23.164 3.94602 23.164 4.05202 23.164C4.26402 23.164 4.37002 23.164 4.58202 23.164H4.79402C5.74802 22.952 6.38402 22.21 6.59602 21.256C6.59602 21.044 6.70202 20.832 6.70202 20.62V14.154C6.70202 10.444 9.03402 7.15798 12.32 5.88598C12.956 5.67398 13.592 5.46198 14.334 5.35598C14.758 5.24998 15.076 5.24998 15.5 5.24998C15.924 5.24998 16.348 5.24998 16.666 5.35598C17.408 5.46198 18.044 5.67398 18.68 5.88598C21.966 7.15798 24.298 10.338 24.298 14.154V20.62C24.298 20.832 24.298 21.044 24.404 21.256C24.616 22.21 25.358 22.952 26.206 23.164H26.418C26.524 23.164 26.736 23.164 26.948 23.164C27.054 23.164 27.054 23.164 27.16 23.164C28.114 23.376 28.75 24.118 28.75 25.178C28.75 26.344 27.796 27.192 26.736 27.192Z" fill="#850E10"/>
<path d="M21.224 32.28C20.8 32.068 20.27 32.068 19.952 32.492C18.892 33.764 17.196 34.612 15.5 34.612C13.698 34.612 12.002 33.764 10.942 32.386C10.624 31.962 10.094 31.856 9.67003 32.174C9.14003 32.492 9.03403 33.128 9.35203 33.552C10.836 35.46 13.062 36.626 15.5 36.626C17.832 36.626 19.952 35.566 21.436 33.87C21.86 33.234 21.754 32.598 21.224 32.28Z" fill="#850E10"/>
</svg>
