<svg width="25" height="19" viewBox="0 0 25 19" fill="none" xmlns="http://www.w3.org/2000/svg">
<path d="M24.0619 3.48414C23.8739 3.39014 23.6859 3.29614 23.4979 3.29614C23.3099 3.29614 23.1219 3.39014 22.9339 3.48414L21.6179 4.23614V5.36414L23.4039 4.33014H23.4979H23.5919C23.6859 4.42414 23.6859 4.42414 23.6859 4.51814V14.7641C23.6859 14.8581 23.6859 14.9521 23.5919 14.9521H23.4979H23.4039L21.5239 13.9181V15.0461L22.8399 15.7981C23.0279 15.8921 23.2159 15.9861 23.4039 15.9861C23.5919 15.9861 23.7799 15.8921 23.9679 15.7981C24.3439 15.6101 24.5319 15.2341 24.5319 14.7641V4.51814C24.6259 4.04814 24.4379 3.67214 24.0619 3.48414Z" fill="#850E10"/>
<path d="M18.14 0.758057H3.10002C1.59602 0.758057 0.374023 1.98006 0.374023 3.48406V15.6101C0.374023 17.1141 1.59602 18.3361 3.10002 18.3361H18.14C19.644 18.3361 20.866 17.1141 20.866 15.6101V3.39006C20.866 1.98006 19.644 0.758057 18.14 0.758057ZM19.926 15.6101C19.926 16.5501 19.174 17.3961 18.14 17.3961H3.10002C2.16002 17.3961 1.31402 16.6441 1.31402 15.6101V3.39006C1.31402 2.45006 2.06602 1.60406 3.10002 1.60406H18.14C19.08 1.60406 19.926 2.35606 19.926 3.39006V15.6101Z" fill="#850E10"/>
<path d="M10.6198 5.36401C8.36379 5.36401 6.20179 6.49201 4.88579 8.27801C4.60379 8.65401 4.32179 9.12401 4.13379 9.50001C4.32179 9.97001 4.60379 10.346 4.88579 10.722C6.20179 12.602 8.36379 13.636 10.6198 13.636C12.8758 13.636 15.0378 12.508 16.3538 10.722C16.6358 10.346 16.9178 9.87601 17.1058 9.50001C16.9178 9.03001 16.6358 8.65401 16.3538 8.27801C15.0378 6.39801 12.8758 5.36401 10.6198 5.36401ZM10.6198 12.696C8.36379 12.696 6.29579 11.474 5.26179 9.40601C6.38979 7.43201 8.45779 6.21001 10.6198 6.21001C12.8758 6.21001 14.9438 7.43201 15.9778 9.50001C14.9438 11.474 12.8758 12.696 10.6198 12.696Z" fill="#850E10"/>
<path d="M10.6203 7.2439C9.39826 7.2439 8.36426 8.2779 8.36426 9.4999C8.36426 10.7219 9.39826 11.7559 10.6203 11.7559C11.8423 11.7559 12.8763 10.7219 12.8763 9.4999C12.8763 8.2779 11.8423 7.2439 10.6203 7.2439Z" fill="#850E10"/>
</svg>
