<svg width="14" height="10" viewBox="0 0 14 10" fill="none" xmlns="http://www.w3.org/2000/svg">
<path d="M12.1441 1.1H10.0941C9.9441 1.1 9.7941 0.95 9.7941 0.8C9.7941 0.35 9.4441 0 8.9941 0H4.8441C4.3941 0 4.0441 0.35 4.0441 0.8C4.0441 0.95 3.8941 1.1 3.7441 1.1H1.6941C1.0441 1.1 0.544098 1.65 0.544098 2.25V8.85C0.544098 9.5 1.0941 10 1.6941 10H12.0941C12.7441 10 13.2441 9.45 13.2441 8.85V2.3C13.3441 1.65 12.7941 1.1 12.1441 1.1ZM12.7941 8.9C12.7941 9.25 12.4941 9.55 12.1441 9.55H1.7441C1.3941 9.55 1.0941 9.25 1.0941 8.9V2.3C1.0941 1.95 1.3941 1.65 1.7441 1.65H4.3941C4.4941 1.65 4.5941 1.55 4.5941 1.45V0.85C4.5941 0.7 4.6941 0.55 4.8941 0.55H9.0441C9.1941 0.55 9.3441 0.65 9.3441 0.85V1.45C9.3441 1.55 9.4441 1.65 9.5441 1.65H12.1941C12.5441 1.65 12.8441 1.95 12.8441 2.3V8.9H12.7941Z" fill="#850E10"/>
<path d="M6.94407 3.60004C5.54407 3.60004 4.39407 4.75004 4.39407 6.15004C4.39407 7.55004 5.54407 8.70004 6.94407 8.70004C8.34407 8.70004 9.49407 7.55004 9.49407 6.15004C9.49407 4.70004 8.34407 3.60004 6.94407 3.60004ZM6.94407 8.15004C5.84407 8.15004 4.89407 7.25004 4.89407 6.10004C4.89407 5.00004 5.79407 4.05004 6.94407 4.05004C8.04407 4.05004 8.99407 4.95004 8.99407 6.10004C8.99407 7.25004 8.04407 8.15004 6.94407 8.15004Z" fill="#850E10"/>
<path d="M11.1941 2.20001C10.8441 2.20001 10.5941 2.45001 10.5941 2.80001C10.5941 3.15001 10.8441 3.40001 11.1941 3.40001C11.5441 3.40001 11.7941 3.15001 11.7941 2.80001C11.7941 2.45001 11.5441 2.20001 11.1941 2.20001Z" fill="#850E10"/>
</svg>
