<svg width="12" height="12" viewBox="0 0 12 12" fill="none" xmlns="http://www.w3.org/2000/svg">
<path d="M6.0249 12C4.38174 12 2.88797 11.3473 1.74274 10.1925C0.647303 9.03766 0 7.58159 0 5.97489C0 2.7113 2.6888 0 5.9751 0C9.3112 0 12 2.66109 12 5.97489C12 7.33054 11.5519 8.58577 10.7054 9.64017C10.6556 9.69038 10.6556 9.74058 10.6556 9.841L11.1535 11.749C11.1535 11.7992 11.1535 11.7992 11.1535 11.8494C11.1535 11.8996 11.1037 11.8996 11.0539 11.8996L8.81328 11.2971H8.76349C8.71369 11.2971 8.71369 11.2971 8.6639 11.2971C7.91701 11.7992 6.97095 12 6.0249 12ZM6.0249 0.60251C4.53112 0.60251 3.13693 1.20502 2.09129 2.25941C1.09544 3.31381 0.497925 4.66946 0.547718 6.12552C0.597511 9.03766 3.08714 11.4979 6.0249 11.4979C6.6722 11.4979 7.3195 11.3975 7.91701 11.1967C8.21577 11.0962 8.51452 10.9456 8.76349 10.795H8.81328L10.2075 11.1464H10.2573C10.3071 11.1464 10.4066 11.0962 10.4066 11.046C10.4564 10.9958 10.4564 10.9456 10.4564 10.8452L10.1577 9.69038C10.1577 9.64017 10.1577 9.64017 10.1577 9.58996C10.3071 9.38912 10.4564 9.23849 10.6058 9.03766C11.2531 8.08368 11.5519 7.02929 11.5519 5.87448C11.5021 2.96234 9.06224 0.602511 6.17427 0.552301L6.0249 0.60251Z" fill="#850E10"/>
</svg>
