<svg width="20" height="15" viewBox="0 0 20 15" fill="none" xmlns="http://www.w3.org/2000/svg">
<path d="M19.3533 2.22718C19.1997 2.15038 19.0461 2.07358 18.8925 2.07358C18.7389 2.07358 18.5853 2.15038 18.4317 2.22718L17.3566 2.84157V3.76316L18.8157 2.91837H18.8925H18.9693C19.0461 2.99517 19.0461 2.99517 19.0461 3.07197V11.4431C19.0461 11.5199 19.0461 11.5967 18.9693 11.5967H18.8925H18.8157L17.2798 10.7519V11.6735L18.3549 12.2879C18.5085 12.3647 18.6621 12.4415 18.8157 12.4415C18.9693 12.4415 19.1229 12.3647 19.2765 12.2879C19.5837 12.1343 19.7373 11.8271 19.7373 11.4431V3.07197C19.8141 2.68797 19.6605 2.38078 19.3533 2.22718Z" fill="#850E10"/>
<path d="M14.515 0H2.22718C0.998389 0 0 0.998389 0 2.22718V12.1343C0 13.3631 0.998389 14.3614 2.22718 14.3614H14.515C15.7438 14.3614 16.7422 13.3631 16.7422 12.1343V2.15038C16.7422 0.998389 15.7438 0 14.515 0ZM15.9742 12.1343C15.9742 12.9023 15.3598 13.5935 14.515 13.5935H2.22718C1.45918 13.5935 0.767992 12.9791 0.767992 12.1343V2.15038C0.767992 1.38238 1.38238 0.691193 2.22718 0.691193H14.515C15.283 0.691193 15.9742 1.30559 15.9742 2.15038V12.1343Z" fill="#850E10"/>
</svg>
