<svg width="15" height="4" viewBox="0 0 15 4" fill="none" xmlns="http://www.w3.org/2000/svg">
<path d="M12 2C12 2.41421 12.3358 2.75 12.75 2.75C13.1642 2.75 13.5 2.41421 13.5 2C13.5 1.58579 13.1642 1.25 12.75 1.25C12.3358 1.25 12 1.58579 12 2Z" stroke="#878787" stroke-width="1.5" stroke-linecap="round" stroke-linejoin="round"/>
<path d="M6.5 2C6.5 2.41421 6.83579 2.75 7.25 2.75C7.66421 2.75 8 2.41421 8 2C8 1.58579 7.66421 1.25 7.25 1.25C6.83579 1.25 6.5 1.58579 6.5 2Z" stroke="#878787" stroke-width="1.5" stroke-linecap="round" stroke-linejoin="round"/>
<path d="M1 2C1 2.41421 1.33579 2.75 1.75 2.75C2.16421 2.75 2.5 2.41421 2.5 2C2.5 1.58579 2.16421 1.25 1.75 1.25C1.33579 1.25 1 1.58579 1 2Z" stroke="#878787" stroke-width="1.5" stroke-linecap="round" stroke-linejoin="round"/>
</svg>
