<svg width="30" height="27" viewBox="0 0 30 27" fill="none" xmlns="http://www.w3.org/2000/svg">
<path d="M0.885378 23.5232L0.884792 23.5238L0.895009 23.5316C3.68181 25.6815 7.02612 26.7961 10.5288 26.7961C14.1114 26.7961 17.4554 25.6018 20.1622 23.5319L20.1627 23.5326L20.1721 23.5232L20.4095 23.2858L20.4388 23.2565V23.2151V21.6329C20.4388 17.1473 16.8339 13.5425 12.3484 13.5425H8.70916C4.2236 13.5425 0.61875 17.1473 0.61875 21.6329V23.2151V23.2565L0.648039 23.2858L0.885378 23.5232ZM10.6079 25.2512C7.48138 25.2512 4.59002 24.3186 2.16367 22.5318V21.6329C2.16367 17.9698 5.12519 15.0083 8.78827 15.0083H12.4275C16.0905 15.0083 19.0521 17.9698 19.0521 21.6329V22.5308C16.5468 24.3189 13.6552 25.2512 10.6079 25.2512Z" fill="#850E10" stroke="#850E10" stroke-width="0.2"/>
<path d="M10.8479 12.9515L10.8486 12.9515C13.9852 12.7906 16.5577 10.2181 16.7186 7.0815L16.7186 7.08081C16.8794 3.46206 13.904 0.486604 10.2852 0.647437L10.2852 0.647435L10.2846 0.64747C7.14795 0.808321 4.57541 3.38086 4.41456 6.51746H4.41456L4.41453 6.51814C4.25369 10.1369 7.22915 13.1124 10.8479 12.9515ZM5.95913 7.06972L5.95914 7.06972L5.959 7.06807C5.72704 4.28456 8.04624 2.03733 10.8374 2.19207C13.1605 2.34722 15.0191 4.20602 15.174 6.52923L15.174 6.52924L15.1741 6.53089C15.4061 9.3144 13.0869 11.5616 10.2958 11.4069C7.97262 11.2517 6.11401 9.39293 5.95913 7.06972Z" fill="#850E10" stroke="#850E10" stroke-width="0.2"/>
<path d="M18.6655 14.7873L18.6652 14.7874L18.6689 14.7949C18.7171 14.8913 18.7924 14.9696 18.8871 15.0102C18.9829 15.0512 19.0916 15.0504 19.1958 14.9992C19.7327 14.7696 20.2714 14.6919 20.8944 14.6919H23.5051C26.0606 14.6919 28.1519 16.7832 28.1519 19.3387V19.9206C26.4392 21.1536 24.4959 21.7714 22.3956 21.8495C22.3018 21.8498 22.2133 21.8736 22.1488 21.9381C22.0839 22.003 22.0602 22.0923 22.0602 22.1868V22.7406C22.0602 22.8351 22.0839 22.9244 22.1488 22.9893C22.2138 23.0542 22.303 23.0779 22.3976 23.0779V23.078L22.4008 23.0779C24.8718 22.9982 27.1858 22.2012 29.1019 20.6855L29.3358 20.5295L29.3804 20.4998V20.4463V19.3387C29.3804 16.119 26.7249 13.4635 23.5051 13.4635H20.8944C20.1807 13.4635 19.4589 13.5421 18.7349 13.8601C18.6112 13.871 18.532 13.968 18.4966 14.0624C18.4589 14.1628 18.4572 14.289 18.5087 14.3953L18.6655 14.7873Z" fill="#850E10" stroke="#850E10" stroke-width="0.2"/>
<path d="M17.6302 8.4138L17.6302 8.4138L17.6301 8.41532C17.4683 11.1656 19.7333 13.3498 22.4024 13.1887C24.6703 13.1071 26.4507 11.2451 26.5322 9.05889C26.6933 6.30914 24.4285 4.12548 21.7598 4.28654C19.5689 4.36833 17.7918 6.23191 17.6302 8.4138ZM21.8518 11.9607L21.8518 11.9607L21.8485 11.9605C20.2388 11.8838 18.9352 10.5804 18.8583 8.97069C18.7816 6.96989 20.3962 5.36189 22.3097 5.51452C23.9251 5.66874 25.2273 6.97646 25.304 8.50475C25.3806 10.5057 23.7656 12.1138 21.8518 11.9607Z" fill="#850E10" stroke="#850E10" stroke-width="0.2"/>
</svg>
