<svg width="31" height="29" viewBox="0 0 31 29" fill="none" xmlns="http://www.w3.org/2000/svg">
<path d="M17.392 28.5181C17.306 28.5181 17.22 28.4321 17.22 28.3461V19.7461C17.22 19.5741 17.048 19.4021 16.876 19.4021H14.124C13.952 19.4021 13.78 19.5741 13.78 19.7461V28.4321C13.78 28.5181 13.694 28.6041 13.608 28.6041H7.416C5.352 28.6041 3.718 26.9701 3.718 24.9061V13.1241H1.396C0.794004 13.1241 0.278004 12.6941 0.106004 12.1781C-0.0659961 11.5761 0.106004 10.9741 0.622004 10.6301L14.726 0.740056C14.984 0.568056 15.242 0.482056 15.5 0.482056C15.758 0.482056 16.102 0.568056 16.274 0.740056L30.378 10.6301C30.894 10.9741 31.066 11.5761 30.894 12.1781C30.722 12.7801 30.206 13.1241 29.604 13.1241H27.454V24.9061C27.454 26.9701 25.82 28.6041 23.756 28.6041L17.392 28.5181ZM16.876 17.9401C17.908 17.9401 18.682 18.7141 18.682 19.7461V27.1421H23.842C25.046 27.1421 26.078 26.1101 26.078 24.9061V12.0061C26.078 11.8341 26.25 11.6621 26.422 11.6621H29.432L27.884 10.5441L15.5 1.94406L1.654 11.6621H4.836C5.008 11.6621 5.18 11.8341 5.18 12.0061V24.8201C5.18 26.0241 6.212 27.0561 7.416 27.0561H12.318V19.6601C12.318 18.6281 13.092 17.8541 14.124 17.8541H16.876V17.9401Z" fill="#850E10"/>
</svg>
