<svg width="15" height="13" viewBox="0 0 15 13" fill="none" xmlns="http://www.w3.org/2000/svg">
<path d="M3.136 4.76001H0.56C0.28 4.76001 0 4.98401 0 5.32001V11.592C0 11.872 0.224 12.152 0.56 12.152H3.136C3.416 12.152 3.696 11.928 3.696 11.592V5.26401C3.696 4.98401 3.416 4.76001 3.136 4.76001ZM2.968 11.424H0.672V5.43201H2.968V11.424Z" fill="#850E10"/>
<path d="M1.904 11.032C2.128 11.032 2.296 10.864 2.296 10.64C2.296 10.416 2.128 10.248 1.904 10.248C1.68 10.248 1.512 10.416 1.512 10.64C1.512 10.864 1.68 11.032 1.904 11.032Z" fill="#850E10"/>
<path d="M14.448 5.488C14.336 4.928 13.888 4.368 13.384 4.2C13.272 4.144 13.16 4.144 13.104 4.144H10.024C9.8 4.144 9.576 3.976 9.576 3.696V1.456C9.576 1.288 9.52 0.728 9.016 0.336C8.736 0.112 8.456 0 8.176 0C8.12 0 8.064 0 8.008 0C7.504 0.056 7.112 0.448 6.888 1.008C6.888 1.064 6.832 1.12 6.832 1.12C6.832 1.12 6.776 2.464 6.776 2.968C6.776 2.968 6.496 5.152 4.312 5.208C4.144 5.208 4.032 5.376 4.032 5.544V11.144C4.032 11.312 4.2 11.48 4.368 11.48H5.376C5.656 11.48 5.936 11.592 6.16 11.704L6.328 11.816C6.608 12.04 6.944 12.096 7.28 12.096H12.376L12.544 12.04C12.6 11.984 13.16 11.76 13.44 11.088C13.552 10.808 13.552 10.528 13.496 10.248C13.496 10.136 13.496 9.968 13.552 9.912C13.72 9.688 14 9.184 13.832 8.456C13.832 8.344 13.832 8.232 13.888 8.12C14.056 7.896 14.28 7.448 14.168 6.888C14.168 6.776 14.168 6.664 14.224 6.608C14.336 6.384 14.504 5.936 14.448 5.488ZM13.44 6.496C13.384 6.608 13.328 6.72 13.384 6.832C13.664 7.448 13.216 7.896 13.104 7.952C12.992 8.064 12.936 8.176 13.048 8.344C13.384 9.184 12.936 9.576 12.768 9.688C12.656 9.744 12.544 9.912 12.656 10.136C12.768 10.416 12.824 10.696 12.768 10.92C12.712 11.032 12.656 11.144 12.544 11.256C12.432 11.368 12.264 11.424 12.096 11.424H7.56C7.168 11.424 6.832 11.312 6.552 11.088L6.384 10.976C6.16 10.808 5.936 10.752 5.656 10.752H5.208C4.984 10.752 4.76 10.584 4.76 10.304V6.328C4.76 6.104 4.872 5.936 5.096 5.936C5.824 5.768 6.44 5.376 6.888 4.76C7.392 4.032 7.504 3.248 7.504 3.136C7.56 2.744 7.56 1.792 7.56 1.4C7.56 1.344 7.56 1.288 7.616 1.176C7.672 1.12 7.784 0.896 8.008 0.784C8.064 0.784 8.176 0.728 8.232 0.728C8.4 0.728 8.512 0.784 8.624 0.896C8.792 1.008 8.848 1.176 8.904 1.624C8.96 1.96 8.96 2.352 8.96 2.744V4.032C8.96 4.032 8.904 4.48 9.24 4.76C9.464 4.928 9.688 4.928 9.8 4.928C9.856 4.928 9.856 4.928 9.912 4.928H12.824C13.048 4.928 13.272 4.984 13.384 5.152C13.552 5.32 13.664 5.488 13.72 5.656C13.832 6.048 13.496 6.44 13.44 6.496Z" fill="#850E10"/>
</svg>
