<svg width="116" height="44" viewBox="0 0 116 44" fill="none" xmlns="http://www.w3.org/2000/svg">
<g clip-path="url(#clip0_2_733)">
<path d="M96.9384 32.3705V34.6812C96.9384 37.5288 96.9263 40.3773 96.9504 43.2249C96.9504 43.7798 96.8277 44.0094 96.2168 44C94.0503 43.9676 91.883 43.9872 89.6736 43.9872C89.6582 43.6978 89.6367 43.4836 89.6367 43.2693C89.6367 35.8054 89.6599 28.3406 89.6367 20.8775C89.617 15.3999 91.9757 11.1985 96.8311 8.76825C106.34 4.00854 116.316 11.3615 115.996 20.7537C115.781 27.0815 111.412 32.2697 105.225 33.3931C102.709 33.8615 100.11 33.5818 97.7526 32.589C97.5716 32.5139 97.3888 32.4405 97.2043 32.373C97.158 32.3577 97.1057 32.3705 96.9384 32.3705ZM108.693 20.4755C108.705 17.1976 106.16 14.6368 102.865 14.6112C99.6051 14.5864 96.9684 17.137 96.9547 20.3235C96.9401 23.7661 99.454 26.3286 102.863 26.3457C106.109 26.3611 108.678 23.7747 108.69 20.4755H108.693Z" fill="#850F0F"/>
<path d="M32.0742 9.60735H26.5984C26.4011 9.60735 26.2029 9.59625 26.0064 9.60735C24.3916 9.71149 22.9905 9.40334 21.5079 8.519C18.2569 6.58131 14.8154 6.74008 11.6545 8.85447C8.41468 11.0226 6.94148 14.1468 7.43655 18.0427C8.36834 25.3692 16.8652 28.8442 22.7666 24.3525C22.9862 24.1818 23.2814 24.0248 23.5482 24.0231C26.2887 24.0009 29.0283 24.012 31.7688 24.0171C31.878 24.0329 31.9856 24.058 32.0905 24.0922C31.0266 26.3833 29.4908 28.2467 27.5568 29.8062C24.2552 32.4661 20.48 33.7294 16.2311 33.5962C7.45714 33.3333 0.757819 26.2313 0.0774194 18.5779C-0.857808 8.03415 6.94491 1.55699 13.4512 0.327793C22.9845 -1.47332 29.9095 4.50193 32.0742 9.60735Z" fill="#850F0F"/>
<path d="M58.6988 33.5886H51.5018C51.4872 33.3077 51.4632 33.0491 51.4623 32.7905C51.4572 28.222 51.4675 23.6569 51.4469 19.0841C51.4383 17.0867 50.232 15.4298 48.4087 14.805C45.6099 13.8464 42.5991 15.9258 42.5802 18.8767C42.5502 23.4699 42.5665 28.0632 42.5639 32.6573V33.5672H35.3258C35.3043 33.3043 35.2657 33.0465 35.2657 32.7887C35.2657 22.204 35.2657 11.6167 35.2657 1.02691C35.264 0.0162354 35.2692 0.0162354 36.2559 0.0162354H42.5408V8.14769C42.8677 8.05379 43.089 7.99575 43.3078 7.92661C51.0419 5.47163 57.0094 10.8425 58.323 15.9787C58.54 16.828 58.7048 17.7175 58.7116 18.5899C58.7503 23.4042 58.7322 28.2194 58.7322 33.0337C58.7322 33.2002 58.7125 33.3666 58.6988 33.5886Z" fill="#850F0F"/>
<path d="M80.9614 33.5834H73.737C73.7198 33.3205 73.6915 33.0849 73.6915 32.8502C73.6915 28.5539 73.6735 24.2577 73.7001 19.9607C73.7404 13.3461 79.4856 7.53133 86.1232 7.3572C86.3162 7.35208 86.5101 7.37427 86.7615 7.38708V14.3406C85.6942 14.7281 84.6328 14.9483 83.7516 15.469C81.931 16.5471 80.9837 18.2364 80.9717 20.3627C80.9468 24.4601 80.9623 28.5625 80.9614 32.6624V33.5834Z" fill="#850F0F"/>
<path d="M62.3401 7.38545C62.5683 7.36496 62.7597 7.33338 62.951 7.33253C64.9244 7.33253 66.8978 7.34704 68.8712 7.32143C69.4152 7.31375 69.6048 7.47252 69.592 8.02907C69.5576 9.4802 69.5825 10.9245 69.5825 12.3722C69.5825 19.0964 69.5825 25.8202 69.5825 32.5438V33.5553H62.3401V7.38545Z" fill="#850F0F"/>
<path d="M65.9548 6.54292C65.5231 6.54901 65.0946 6.47002 64.6938 6.31049C64.293 6.15097 63.9279 5.91407 63.6196 5.61347C63.3113 5.31286 63.0659 4.9545 62.8975 4.55906C62.7291 4.16361 62.6411 3.73891 62.6386 3.30946C62.6103 1.53652 64.1255 0.0145398 65.9076 0.0188078C67.7266 0.0239294 69.2135 1.47506 69.2341 3.26251C69.2547 5.04996 67.7703 6.53268 65.9548 6.54292Z" fill="#850F0F"/>
</g>
<defs>
<clipPath id="clip0_2_733">
<rect width="116" height="44" fill="white"/>
</clipPath>
</defs>
</svg>
