<svg width="21" height="19" viewBox="0 0 21 19" fill="none" xmlns="http://www.w3.org/2000/svg">
<path d="M19.5922 2.36549H1.43545C0.796125 2.36549 0.284668 1.85403 0.284668 1.21471V1.15078C0.284668 0.511456 0.796125 0 1.43545 0H19.6561C20.2954 0 20.8069 0.511456 20.8069 1.15078V1.21471C20.7429 1.85403 20.2315 2.36549 19.5922 2.36549Z" fill="#850E10"/>
<path d="M19.5923 10.2393H7.44517C6.80585 10.2393 6.29439 9.72787 6.29439 9.08855C6.29439 8.44923 6.80585 7.93777 7.44517 7.93777H19.5923C20.2316 7.93777 20.743 8.44923 20.743 9.08855C20.743 9.72787 20.2316 10.2393 19.5923 10.2393Z" fill="#850E10"/>
<path d="M19.5921 18.1771H14.2218C13.5825 18.1771 13.071 17.6656 13.071 17.0263C13.071 16.387 13.5825 15.8755 14.2218 15.8755H19.5921C20.2314 15.8755 20.7429 16.387 20.7429 17.0263V17.0903C20.7429 17.6656 20.2314 18.1771 19.5921 18.1771Z" fill="#850E10"/>
</svg>
