<svg width="32" height="32" viewBox="0 0 32 32" fill="none" xmlns="http://www.w3.org/2000/svg">
<path d="M16.0664 32C11.6846 32 7.70124 30.2594 4.6473 27.1799C1.72614 24.1004 0 20.2176 0 15.9331C0 7.23012 7.17012 0 15.9336 0C24.8299 0 32 7.09623 32 15.9331C32 19.5481 30.805 22.8954 28.5477 25.7071C28.4149 25.841 28.4149 25.9749 28.4149 26.2427L29.7427 31.3305C29.7427 31.4644 29.7427 31.4644 29.7427 31.5983C29.7427 31.7322 29.61 31.7322 29.4772 31.7322L23.5021 30.1255H23.3693C23.2365 30.1255 23.2365 30.1255 23.1037 30.1255C21.112 31.4644 18.5892 32 16.0664 32ZM16.0664 1.60669C12.083 1.60669 8.36515 3.21339 5.57676 6.0251C2.92116 8.83682 1.3278 12.4519 1.46058 16.3347C1.59336 24.1004 8.23236 30.6611 16.0664 30.6611C17.7925 30.6611 19.5187 30.3933 21.112 29.8577C21.9087 29.59 22.7054 29.1883 23.3693 28.7866H23.5021L27.2199 29.7238H27.3527C27.4855 29.7238 27.751 29.59 27.751 29.4561C27.8838 29.3222 27.8838 29.1883 27.8838 28.9205L27.0871 25.841C27.0871 25.7071 27.0871 25.7071 27.0871 25.5732C27.4855 25.0377 27.8838 24.636 28.2822 24.1004C30.0083 21.5565 30.805 18.7448 30.805 15.6653C30.6722 7.89958 24.166 1.60669 16.4647 1.4728L16.0664 1.60669Z" fill="#850E10"/>
<path d="M17.8621 21H17.7241L13.4483 16.4286C13.3103 16.2857 13.1724 16.2857 13.1724 16.2857C13.0345 16.2857 13.0345 16.2857 12.8966 16.2857L6.27586 20.1429C6.27586 20.1429 6.27586 20.1429 6.13793 20.1429C6 20.1429 6 20.1429 6 20C6 20 6 19.8571 6 19.7143L14 11H14.1379H14.2759L18.6897 15.5714C18.8276 15.7143 18.9655 15.7143 18.9655 15.7143C19.1035 15.7143 19.1034 15.7143 19.2414 15.7143L25.7241 11.8571C25.7241 11.8571 25.7241 11.8571 25.8621 11.8571C26 11.8571 26 11.8571 26 12C26 12 26 12.1429 26 12.2857L18.1379 21C18 21 17.8621 21 17.8621 21Z" fill="#850E10"/>
</svg>
