<svg width="24" height="19" viewBox="0 0 24 19" fill="none" xmlns="http://www.w3.org/2000/svg">
<path d="M11.8494 8.53793H12.1119H12.1775C13.2931 8.47231 14.343 8.01296 15.1305 7.15989C15.9179 6.30683 16.3116 5.2569 16.246 4.14135C16.1148 1.97587 14.4086 0.204109 12.1775 0.138489H11.7838C9.61833 0.26973 7.84657 1.97587 7.78095 4.14135C7.71533 5.2569 8.10905 6.37245 8.8965 7.15989C9.61833 8.01296 10.6683 8.47231 11.8494 8.53793ZM11.7838 0.860316H11.915H12.1775C13.8837 0.991557 15.2617 2.36959 15.3273 4.0101C15.4586 5.78186 14.2118 7.29113 12.44 7.61924H12.3744C12.3088 7.61924 12.1775 7.61924 12.0463 7.61924H11.915H11.7838C11.6526 7.61924 11.5869 7.61924 11.4557 7.61924H11.3245C9.61833 7.29113 8.37154 5.78186 8.50278 4.0101C8.69964 2.36959 10.0777 0.991557 11.7838 0.860316Z" fill="#850E10"/>
<path d="M20.1179 9.12827H18.4773C18.1492 9.12827 17.8211 9.19389 17.493 9.25951C17.6899 9.45637 17.9524 9.58761 18.1492 9.78447C18.2805 9.78447 18.3461 9.78447 18.4773 9.78447H20.1179C21.7584 9.78447 23.1364 11.0969 23.1364 12.803V13.1311C22.2833 13.7873 21.299 14.1811 20.3147 14.3123C20.3147 14.4435 20.3147 14.6404 20.3147 14.7716V14.9685C21.5615 14.7716 22.6771 14.3123 23.6614 13.5248L23.7926 13.3936V12.6718C23.7926 10.7688 22.1521 9.12827 20.1179 9.12827Z" fill="#850E10"/>
<path d="M19.4615 8.80031C20.8395 8.73469 21.955 7.61914 22.0207 6.24111C22.1519 4.60059 20.7739 3.15694 19.0677 3.28818C17.6897 3.3538 16.5742 4.46935 16.5085 5.84738C16.4429 7.55352 17.821 8.93155 19.4615 8.80031ZM19.4615 3.94439C20.5114 4.01001 21.3645 4.86308 21.4301 5.91301C21.4957 7.1598 20.4458 8.20973 19.199 8.14411C18.1491 8.07849 17.296 7.22542 17.2304 6.17549C17.0991 4.9287 18.1491 3.87877 19.4615 3.94439Z" fill="#850E10"/>
<path d="M13.2933 9.19406H10.6685C7.58432 9.19406 5.02512 11.6876 5.02512 14.8374V15.8874L5.22198 16.0186C7.1906 17.5279 9.48732 18.3153 12.0465 18.3153C14.5401 18.3153 16.8368 17.5279 18.8054 16.0186L18.9367 15.953V14.8374C18.9367 11.6876 16.3775 9.19406 13.2933 9.19406ZM18.018 15.4936C16.2462 16.806 14.1464 17.4623 11.9809 17.4623C9.81542 17.4623 7.71556 16.7404 5.9438 15.428V14.7718C5.9438 12.147 8.10928 9.98151 10.7341 9.98151H13.2277C15.8525 9.98151 18.018 12.147 18.018 14.7718V15.4936Z" fill="#850E10"/>
<path d="M3.84397 9.78447H5.48449C5.61573 9.78447 5.68135 9.78447 5.81259 9.78447C6.00945 9.58761 6.20632 9.39075 6.4688 9.25951C6.14069 9.19389 5.81259 9.12827 5.48449 9.12827H3.84397C1.80974 9.12827 0.16922 10.7688 0.16922 12.803V13.5248L0.300461 13.6561C1.28477 14.4435 2.46594 14.9029 3.64711 15.0997V14.9029C3.64711 14.7716 3.64711 14.5748 3.64711 14.4435C2.6628 14.1811 1.67849 13.7873 0.825426 13.1311V12.7374C0.825426 11.0969 2.20346 9.78447 3.84397 9.78447Z" fill="#850E10"/>
<path d="M4.50031 8.80067C6.14082 8.93191 7.58448 7.55387 7.45324 5.84774C7.38762 4.46971 6.27207 3.35416 4.89403 3.28854C3.25352 3.15729 1.80986 4.53533 1.94111 6.24146C2.00673 7.6195 3.12228 8.73504 4.50031 8.80067ZM4.50031 3.94474C5.7471 3.87912 6.79703 4.92905 6.73141 6.17584C6.66579 7.22577 5.81272 8.07884 4.76279 8.14446C3.516 8.21008 2.46607 7.16015 2.53169 5.91336C2.59731 4.86343 3.45038 4.01036 4.50031 3.94474Z" fill="#850E10"/>
</svg>
