<svg width="14" height="11" viewBox="0 0 14 11" fill="none" xmlns="http://www.w3.org/2000/svg">
<path d="M11.7291 0H1.37093C0.609302 0 0 0.609301 0 1.37093V8.68255C0 8.83488 0.0507751 9.03798 0.10155 9.1903C0.152325 9.34263 0.2031 9.44418 0.304651 9.54573C0.558527 9.85038 0.964728 10.0535 1.37093 10.0535H11.7291C12.4907 10.0535 13.1 9.44418 13.1 8.68255V1.37093C13.1 0.609301 12.4907 0 11.7291 0ZM12.5415 7.92093L8.12403 4.82364C8.07325 4.77287 8.02248 4.77287 7.9717 4.77287C7.87015 4.77287 7.81938 4.82364 7.7686 4.87442L7.1593 5.43294C7.00697 5.53449 6.9562 5.53449 6.80387 5.53449C6.70232 5.53449 6.65155 5.48372 6.55 5.43294L4.41744 3.75736C4.36666 3.70659 4.31589 3.70659 4.21434 3.70659C4.11279 3.70659 4.06201 3.75736 4.01124 3.80814L0.558527 7.46395V1.37093C0.558527 0.913952 0.913953 0.558527 1.37093 0.558527H11.7291C12.186 0.558527 12.5415 0.913952 12.5415 1.37093V7.92093Z" fill="#850E10"/>
<path d="M9.03798 4.16354C9.68295 4.16354 10.2058 3.64068 10.2058 2.99571C10.2058 2.35074 9.68295 1.82788 9.03798 1.82788C8.393 1.82788 7.87015 2.35074 7.87015 2.99571C7.87015 3.64068 8.393 4.16354 9.03798 4.16354Z" fill="#850E10"/>
</svg>
