<svg width="27" height="27" viewBox="0 0 27 27" fill="none" xmlns="http://www.w3.org/2000/svg">
<path d="M22.454 0.920044H4.546C2.252 0.920044 0.328003 2.84404 0.328003 5.13804V18.014C0.328003 20.308 2.252 22.232 4.546 22.232H22.38C24.674 22.232 26.598 20.308 26.598 18.014V5.13804C26.672 2.84404 24.748 0.920044 22.454 0.920044ZM25.34 18.014C25.34 19.642 24.008 20.9 22.454 20.9H4.546C2.992 20.9 1.66 19.642 1.66 18.014V5.13804C1.66 3.51004 2.992 2.25204 4.546 2.25204H22.38C24.008 2.25204 25.266 3.58404 25.266 5.13804V18.014H25.34Z" fill="#850E10"/>
<path d="M18.6061 10.318L9.80005 5.28601C9.35605 5.06401 8.83805 5.06401 8.39405 5.28601C7.95005 5.50801 7.65405 6.02601 7.65405 6.54401V16.682C7.65405 17.2 7.95005 17.644 8.39405 17.94C8.61605 18.088 8.83805 18.162 9.13405 18.162C9.35605 18.162 9.65205 18.088 9.87405 17.94L18.6061 12.908C19.0501 12.686 19.3461 12.168 19.3461 11.65C19.2721 11.058 19.0501 10.614 18.6061 10.318ZM17.9401 11.65L9.20805 16.682H9.13405C9.06005 16.682 9.06005 16.608 9.06005 16.608V6.54401C9.06005 6.54401 9.06005 6.47001 9.13405 6.47001C9.13405 6.47001 9.13405 6.47001 9.20805 6.47001H9.28205L17.9401 11.502C17.9401 11.502 18.0141 11.502 18.0141 11.576C18.0141 11.65 17.9401 11.65 17.9401 11.65Z" fill="#850E10"/>
<path d="M20.974 24.082H6.02599C5.50799 24.082 4.98999 24.526 4.98999 25.118C4.98999 25.71 5.43399 26.154 6.02599 26.154H21.048C21.566 26.154 22.084 25.71 22.084 25.118C22.084 24.526 21.566 24.082 20.974 24.082Z" fill="#850E10"/>
</svg>
