<svg width="22" height="14" viewBox="0 0 22 14" fill="none" xmlns="http://www.w3.org/2000/svg">
<path d="M20.2195 11.4413L17.1535 9.9087C16.9483 9.80607 16.7757 9.6483 16.6551 9.4531C16.5345 9.2579 16.4707 9.03297 16.4708 8.80353V5.19647C16.4707 4.96702 16.5345 4.7421 16.6551 4.54689C16.7757 4.35169 16.9483 4.19393 17.1535 4.09129L20.2195 2.5587C20.345 2.49582 20.4844 2.46605 20.6247 2.47223C20.7649 2.47841 20.9012 2.52034 21.0207 2.59402C21.1402 2.6677 21.2388 2.77069 21.3073 2.89322C21.3758 3.01575 21.4118 3.15375 21.4119 3.29411V10.7059C21.4119 10.8463 21.376 10.9844 21.3076 11.1071C21.2392 11.2297 21.1405 11.3328 21.021 11.4066C20.9016 11.4804 20.7652 11.5224 20.6249 11.5286C20.4846 11.5348 20.345 11.505 20.2195 11.4421V11.4413Z" fill="#850E10"/>
<path fill-rule="evenodd" clip-rule="evenodd" d="M0 3.29412C0 2.42046 0.347058 1.58259 0.964825 0.964825C1.58259 0.347058 2.42046 0 3.29412 0H11.5294C12.4031 0 13.2409 0.347058 13.8587 0.964825C14.4765 1.58259 14.8235 2.42046 14.8235 3.29412V10.7059C14.8235 11.5795 14.4765 12.4174 13.8587 13.0352C13.2409 13.6529 12.4031 14 11.5294 14H3.29412C2.42046 14 1.58259 13.6529 0.964825 13.0352C0.347058 12.4174 0 11.5795 0 10.7059V3.29412ZM6.58824 3.29412C6.58824 3.0757 6.675 2.86624 6.82944 2.71179C6.98388 2.55735 7.19335 2.47059 7.41176 2.47059C7.63018 2.47059 7.83965 2.55735 7.99409 2.71179C8.14853 2.86624 8.23529 3.0757 8.23529 3.29412V5.97059C8.23529 6.08424 8.32753 6.17647 8.44118 6.17647H11.1176C11.3361 6.17647 11.5455 6.26323 11.7 6.41768C11.8544 6.57212 11.9412 6.78159 11.9412 7C11.9412 7.21841 11.8544 7.42788 11.7 7.58232C11.5455 7.73677 11.3361 7.82353 11.1176 7.82353H8.44118C8.38657 7.82353 8.33421 7.84522 8.2956 7.88383C8.25698 7.92244 8.23529 7.97481 8.23529 8.02941V10.7059C8.23529 10.9243 8.14853 11.1338 7.99409 11.2882C7.83965 11.4426 7.63018 11.5294 7.41176 11.5294C7.19335 11.5294 6.98388 11.4426 6.82944 11.2882C6.675 11.1338 6.58824 10.9243 6.58824 10.7059V8.02941C6.58824 7.97481 6.56654 7.92244 6.52793 7.88383C6.48932 7.84522 6.43696 7.82353 6.38235 7.82353H3.70588C3.48747 7.82353 3.278 7.73677 3.12356 7.58232C2.96912 7.42788 2.88235 7.21841 2.88235 7C2.88235 6.78159 2.96912 6.57212 3.12356 6.41768C3.278 6.26323 3.48747 6.17647 3.70588 6.17647H6.38235C6.43696 6.17647 6.48932 6.15478 6.52793 6.11617C6.56654 6.07756 6.58824 6.02519 6.58824 5.97059V3.29412Z" fill="#850E10"/>
</svg>
