<svg width="18" height="18" viewBox="0 0 18 18" fill="none" xmlns="http://www.w3.org/2000/svg">
<path d="M13.032 11.016C13.536 10.152 13.752 9.21598 13.752 8.27998C13.752 5.25598 11.304 2.80798 8.27998 2.80798C5.25598 2.80798 2.80798 5.25598 2.80798 8.27998C2.80798 11.304 5.25598 13.752 8.27998 13.752C9.28798 13.752 10.224 13.464 11.088 12.96C11.88 12.528 12.528 11.808 13.032 11.016ZM8.27998 13.176C5.54398 13.176 3.38398 10.944 3.38398 8.27998C3.38398 5.54398 5.61598 3.38398 8.27998 3.38398C11.016 3.38398 13.176 5.61598 13.176 8.27998C13.176 11.016 10.944 13.176 8.27998 13.176Z" fill="#850E10"/>
<path d="M17.208 15.552C17.208 15.264 17.136 15.048 16.92 14.832L14.472 12.384V12.312C15.264 11.088 15.696 9.71997 15.696 8.20797C15.696 4.10397 12.312 0.719971 8.20797 0.719971C4.10397 0.719971 0.719971 4.10397 0.719971 8.20797C0.719971 12.312 4.10397 15.696 8.20797 15.696C9.64797 15.696 11.088 15.264 12.312 14.472H12.384L14.832 16.92C15.048 17.136 15.264 17.208 15.552 17.208C15.84 17.208 16.056 17.136 16.272 16.92L16.992 16.2C17.136 16.056 17.208 15.768 17.208 15.552ZM16.416 15.696L15.696 16.416C15.696 16.488 15.624 16.488 15.552 16.488C15.48 16.488 15.48 16.488 15.408 16.416L12.528 13.536C12.312 13.752 12.096 13.896 11.808 14.04C10.728 14.688 9.50397 15.048 8.27997 15.048C4.60797 15.048 1.58397 12.024 1.58397 8.35197C1.58397 4.67997 4.60797 1.65597 8.27997 1.65597C11.952 1.65597 14.976 4.67997 14.976 8.35197C14.976 9.57597 14.616 10.8 13.968 11.808C13.824 12.024 13.608 12.312 13.464 12.528L16.416 15.48C16.416 15.48 16.488 15.552 16.488 15.624C16.416 15.624 16.416 15.624 16.416 15.696Z" fill="#850E10"/>
</svg>
