<svg width="13" height="12" viewBox="0 0 13 12" fill="none" xmlns="http://www.w3.org/2000/svg">
<path d="M0.0224865 12C-0.0281081 12 0.0224865 12 0.0224865 12C0.0224865 11.561 0.0224865 10.9268 0.0224865 10.7805C0.427243 7.7561 1.54032 5.5122 3.31114 4.09756C4.82897 2.87805 6.49859 2.53659 7.61168 2.4878H7.66227V0.292683C7.66227 0.0975612 7.81405 0 7.96584 0C8.01643 0 8.11762 -9.44952e-08 8.16822 0.0975609L12.9241 4.82927C13.0253 4.92683 13.0253 5.12195 12.9241 5.21951L8.16822 9.95122C8.11762 10 8.01643 10.0488 7.96584 10.0488C7.81405 10.0488 7.66227 9.95122 7.66227 9.7561V7.5122H7.61168C6.95395 7.56098 5.94205 7.70732 4.87957 8.04878C3.00757 8.63415 1.59092 9.60976 0.629622 10.9756C0.427243 11.2683 0.224865 11.6098 0.0224865 12ZM7.76346 3.07317H7.66227C7.4093 3.07317 7.20692 3.12195 6.95395 3.17073C6.09384 3.31707 4.87957 3.65854 3.76649 4.58537C2.40043 5.65854 1.48973 7.26829 0.983784 9.36586C0.983784 9.41464 0.983784 9.46341 1.03438 9.46341C1.08497 9.51219 1.08497 9.5122 1.13557 9.5122C1.18616 9.5122 1.18616 9.51219 1.23676 9.46341C1.33795 9.36585 1.48973 9.26829 1.59092 9.17073C2.50162 8.43902 3.56411 7.85366 4.82897 7.46342C5.99265 7.12195 7.05513 6.97561 7.71286 6.92683L8.16822 6.87805H8.32L8.37059 6.82927V8.34146C8.37059 8.4878 8.52238 8.58537 8.62357 8.58537C8.67416 8.58537 8.77535 8.53659 8.82595 8.48781L12.1652 5.17073C12.2664 5.07317 12.2664 4.92683 12.1652 4.82927L8.82595 1.5122C8.77535 1.46341 8.72476 1.41463 8.62357 1.41463C8.47178 1.41463 8.37059 1.5122 8.37059 1.65854V3.07317H8.11762H7.76346Z" fill="#850E10"/>
</svg>
