<svg width="16" height="16" viewBox="0 0 16 16" fill="none" xmlns="http://www.w3.org/2000/svg">
<path d="M14 2.5C14 1.83696 13.7366 1.20107 13.2678 0.732233C12.7989 0.263392 12.163 0 11.5 0H2.5C1.83696 0 1.20107 0.263392 0.732233 0.732233C0.263392 1.20107 0 1.83696 0 2.5V11.5C0 12.163 0.263392 12.7989 0.732233 13.2678C1.20107 13.7366 1.83696 14 2.5 14H6.6C6.43647 13.6804 6.30483 13.3454 6.207 13H2.5C2.10218 13 1.72064 12.842 1.43934 12.5607C1.15804 12.2794 1 11.8978 1 11.5V4H13V6.207C13.349 6.306 13.683 6.437 14 6.6V2.5ZM2.5 1H11.5C11.8978 1 12.2794 1.15804 12.5607 1.43934C12.842 1.72064 13 2.10218 13 2.5V3H1V2.5C1 2.10218 1.15804 1.72064 1.43934 1.43934C1.72064 1.15804 2.10218 1 2.5 1ZM16 11.5C16 12.6935 15.5259 13.8381 14.682 14.682C13.8381 15.5259 12.6935 16 11.5 16C10.3065 16 9.16193 15.5259 8.31802 14.682C7.47411 13.8381 7 12.6935 7 11.5C7 10.3065 7.47411 9.16193 8.31802 8.31802C9.16193 7.47411 10.3065 7 11.5 7C12.6935 7 13.8381 7.47411 14.682 8.31802C15.5259 9.16193 16 10.3065 16 11.5ZM13.713 11.063L10.743 9.413C10.6669 9.37068 10.581 9.34896 10.494 9.35002C10.4069 9.35107 10.3216 9.37485 10.2465 9.419C10.1714 9.46315 10.1092 9.52614 10.066 9.60174C10.0227 9.67733 10 9.76291 10 9.85V13.15C10 13.2371 10.0227 13.3227 10.066 13.3983C10.1092 13.4739 10.1714 13.5369 10.2465 13.581C10.3216 13.6252 10.4069 13.6489 10.494 13.65C10.581 13.651 10.6669 13.6293 10.743 13.587L13.713 11.937C13.7909 11.8937 13.8558 11.8303 13.901 11.7535C13.9462 11.6767 13.97 11.5891 13.97 11.5C13.97 11.4109 13.9462 11.3233 13.901 11.2465C13.8558 11.1697 13.7909 11.1063 13.713 11.063Z" fill="#850E10"/>
</svg>
