<svg width="25" height="20" viewBox="0 0 25 20" fill="none" xmlns="http://www.w3.org/2000/svg">
<path d="M12.0059 11.3714L0.621099 6.27469C0.223957 6.07612 0.223957 5.54659 0.621099 5.34802L12.0059 0.118979C12.1382 0.0527883 12.2706 0.0527883 12.4692 0.118979L23.8539 5.34802C24.2511 5.54659 24.2511 6.14231 23.8539 6.27469L12.4692 11.3714C12.2706 11.4375 12.1382 11.4375 12.0059 11.3714ZM3.20252 6.27469L12.0059 10.2461C12.1382 10.3123 12.2706 10.3123 12.403 10.2461L21.2063 6.27469C21.6035 6.07612 21.6035 5.54659 21.2063 5.34802L12.403 1.31041C12.2706 1.24422 12.1382 1.24422 11.9397 1.31041L3.13633 5.34802C2.73919 5.4804 2.73919 6.07612 3.20252 6.27469Z" fill="#850E10"/>
<path d="M12.072 15.2764L0.952046 10.2459C0.753474 10.1797 0.687284 9.98113 0.753474 9.78255L0.952046 9.4516C1.01824 9.25303 1.21681 9.18684 1.41538 9.25303L12.1382 14.0849C12.2044 14.1511 12.3368 14.1511 12.403 14.0849L23.1258 9.25303C23.3244 9.18684 23.4568 9.25303 23.5892 9.4516L23.7216 9.84875C23.7877 10.0473 23.7215 10.1797 23.523 10.3121L12.403 15.3426C12.2706 15.2764 12.1382 15.2764 12.072 15.2764Z" fill="#850E10"/>
<path d="M12.072 19.0496L0.952046 14.0853C0.753474 14.0191 0.687284 13.8205 0.753474 13.6219L0.952046 13.291C1.01824 13.0924 1.21681 13.0262 1.41538 13.0924L12.1382 17.9243C12.2044 17.9905 12.3368 17.9905 12.403 17.9243L23.1258 13.0924C23.3244 13.0262 23.4568 13.0924 23.5892 13.291L23.7216 13.6881C23.7877 13.8867 23.7215 14.0191 23.523 14.1515L12.403 19.1819C12.2706 19.1157 12.1382 19.1157 12.072 19.0496Z" fill="#850E10"/>
</svg>
